<svg width="31" height="23" viewBox="0 0 31 23" fill="none" xmlns="http://www.w3.org/2000/svg">
<path d="M7.74997 9C7.41547 9 7.09447 9.051 6.77497 9.0975C6.87847 8.7495 6.98497 8.3955 7.15597 8.0775C7.32697 7.6155 7.59397 7.215 7.85947 6.8115C8.08147 6.375 8.47297 6.0795 8.76097 5.706C9.06247 5.343 9.47347 5.1015 9.79897 4.8C10.1185 4.485 10.537 4.3275 10.87 4.1055C11.218 3.906 11.521 3.6855 11.845 3.5805L12.6535 3.2475L13.3645 2.952L12.637 0.0449982L11.7415 0.260998C11.455 0.332998 11.1055 0.416998 10.708 0.517498C10.3015 0.592498 9.86797 0.797998 9.38497 0.985498C8.90797 1.1985 8.35597 1.3425 7.84297 1.6845C7.32697 2.0115 6.73147 2.2845 6.20647 2.7225C5.69797 3.174 5.08447 3.5655 4.63147 4.14C4.13647 4.677 3.64747 5.241 3.26797 5.883C2.82847 6.495 2.52997 7.167 2.21497 7.8315C1.92997 8.496 1.70047 9.1755 1.51297 9.8355C1.15747 11.1585 0.998474 12.4155 0.936974 13.491C0.885974 14.568 0.915974 15.4635 0.978974 16.1115C1.00147 16.4175 1.04347 16.7145 1.07347 16.92L1.11097 17.172L1.14997 17.163C1.41677 18.4092 2.03093 19.5545 2.92142 20.4663C3.81191 21.378 4.94234 22.0191 6.18193 22.3152C7.42153 22.6114 8.71964 22.5505 9.92611 22.1397C11.1326 21.729 12.1981 20.985 12.9994 19.9939C13.8007 19.0029 14.305 17.8052 14.4541 16.5394C14.6032 15.2737 14.3908 13.9916 13.8417 12.8415C13.2925 11.6914 12.429 10.7203 11.351 10.0405C10.2729 9.36065 9.02446 8.99991 7.74997 9ZM24.25 9C23.9155 9 23.5945 9.051 23.275 9.0975C23.3785 8.7495 23.485 8.3955 23.656 8.0775C23.827 7.6155 24.094 7.215 24.3595 6.8115C24.5815 6.375 24.973 6.0795 25.261 5.706C25.5625 5.343 25.9735 5.1015 26.299 4.8C26.6185 4.485 27.037 4.3275 27.37 4.1055C27.718 3.906 28.021 3.6855 28.345 3.5805L29.1535 3.2475L29.8645 2.952L29.137 0.0449982L28.2415 0.260998C27.955 0.332998 27.6055 0.416998 27.208 0.517498C26.8015 0.592498 26.368 0.797998 25.885 0.985498C25.4095 1.2 24.856 1.3425 24.343 1.686C23.827 2.013 23.2315 2.286 22.7065 2.724C22.198 3.1755 21.5845 3.567 21.1315 4.14C20.6365 4.677 20.1475 5.241 19.768 5.883C19.3285 6.495 19.03 7.167 18.715 7.8315C18.43 8.496 18.2005 9.1755 18.013 9.8355C17.6575 11.1585 17.4985 12.4155 17.437 13.491C17.386 14.568 17.416 15.4635 17.479 16.1115C17.5015 16.4175 17.5435 16.7145 17.5735 16.92L17.611 17.172L17.65 17.163C17.9168 18.4092 18.5309 19.5545 19.4214 20.4663C20.3119 21.378 21.4423 22.0191 22.6819 22.3152C23.9215 22.6114 25.2196 22.5505 26.4261 22.1397C27.6326 21.729 28.6981 20.985 29.4994 19.9939C30.3007 19.0029 30.805 17.8052 30.9541 16.5394C31.1032 15.2737 30.8908 13.9916 30.3417 12.8415C29.7925 11.6914 28.929 10.7203 27.851 10.0405C26.7729 9.36065 25.5245 8.99991 24.25 9Z" fill="#F11515"/>
</svg>
